STARTFONT 2.1
COMMENT Recovered from 20vr.qfasl (MIT CADR System 46 serialized QFASL FONT object)
FONT MIT-CADR-QFASL-20VR
SIZE 20 72 72
FONTBOUNDINGBOX 22 20 0 -5
STARTPROPERTIES 2
FONT_ASCENT 15
FONT_DESCENT 5
ENDPROPERTIES
CHARS 128
STARTCHAR C0000
ENCODING -1 0
SWIDTH 0 0
DWIDTH 0 0
BBX 22 20 0 -5
BITMAP
000000
000000
000000
000000
000000
000000
000000
000000
000000
000000
000000
000000
000000
000000
000000
000000
000000
000000
000000
000000
ENDCHAR
STARTCHAR C0001
ENCODING -1 1
SWIDTH 550 0
DWIDTH 11 0
BBX 22 20 0 -5
BITMAP
000000
000000
000000
000000
008000
03E000
0CC000
18C000
318000
318000
630000
670000
EF0000
F78000
C60000
000000
000000
000000
000000
000000
ENDCHAR
STARTCHAR C0002
ENCODING -1 2
SWIDTH 450 0
DWIDTH 9 0
BBX 22 20 0 -5
BITMAP
018000
030000
060000
0E0000
0C0000
1B0000
3F8000
398000
718000
618000
E10000
C30000
C40000
E80000
700000
000000
000000
000000
000000
000000
ENDCHAR
STARTCHAR C0003
ENCODING -1 3
SWIDTH 400 0
DWIDTH 8 0
BBX 22 20 0 -5
BITMAP
000000
000000
000000
000000
000000
030000
0F0000
130000
320000
600000
600000
E00000
E40000
F80000
600000
000000
000000
000000
000000
000000
ENDCHAR
STARTCHAR C0004
ENCODING -1 4
SWIDTH 650 0
DWIDTH 13 0
BBX 22 20 0 -5
BITMAP
000800
001800
003000
007000
006000
03C000
0DC000
18C000
318000
618000
E30000
C70000
EB4000
F78000
670000
000000
000000
000000
000000
000000
ENDCHAR
STARTCHAR C0005
ENCODING -1 5
SWIDTH 450 0
DWIDTH 9 0
BBX 22 20 0 -5
BITMAP
000000
000000
000000
000000
000000
078000
198000
310000
3E0000
700000
E00000
C20000
C40000
F80000
600000
000000
000000
000000
000000
000000
ENDCHAR
STARTCHAR C0006
ENCODING -1 6
SWIDTH 650 0
DWIDTH 13 0
BBX 22 20 0 -5
BITMAP
001800
007800
00D000
018000
018000
030000
030000
070000
0FC000
060000
0E0000
0C0000
0C0000
180000
180000
300000
B00000
A00000
C00000
000000
ENDCHAR
STARTCHAR C0007
ENCODING -1 7
SWIDTH 600 0
DWIDTH 12 0
BBX 22 20 0 -5
BITMAP
000000
000000
000000
000000
000000
01D000
02F000
0C6000
086000
18C000
31C000
338000
758000
7B0000
630000
060000
4C0000
D80000
F00000
400000
ENDCHAR
STARTCHAR C0008
ENCODING -1 8
SWIDTH 650 0
DWIDTH 13 0
BBX 22 20 0 -5
BITMAP
004000
018000
018000
030000
030000
061800
063800
0CF000
0D2000
1A6000
1CC000
3CC000
39C000
71E000
E18000
000000
000000
000000
000000
000000
ENDCHAR
STARTCHAR C0009
ENCODING -1 9
SWIDTH 400 0
DWIDTH 8 0
BBX 22 20 0 -5
BITMAP
000000
020000
0F0000
040000
000000
0E0000
0C0000
180000
180000
300000
600000
600000
E80000
F00000
C00000
000000
000000
000000
000000
000000
ENDCHAR
STARTCHAR C000A
ENCODING -1 10
SWIDTH 600 0
DWIDTH 12 0
BBX 22 20 0 -5
BITMAP
000000
000000
007000
00C000
000000
00C000
018000
018000
030000
030000
060000
060000
0C0000
0C0000
180000
180000
B00000
A00000
C00000
000000
ENDCHAR
STARTCHAR C000B
ENCODING -1 11
SWIDTH 500 0
DWIDTH 10 0
BBX 22 20 0 -5
BITMAP
008000
018000
030000
030000
060000
064000
0CC000
0CC000
190000
1E0000
3C0000
360000
660000
67C000
830000
000000
000000
000000
000000
000000
ENDCHAR
STARTCHAR C000C
ENCODING -1 12
SWIDTH 450 0
DWIDTH 9 0
BBX 22 20 0 -5
BITMAP
018000
030000
060000
060000
0C0000
0C0000
180000
180000
300000
300000
600000
600000
E80000
F00000
600000
000000
000000
000000
000000
000000
ENDCHAR
STARTCHAR C000D
ENCODING -1 13
SWIDTH 850 0
DWIDTH 17 0
BBX 22 20 0 -5
BITMAP
000000
000000
000000
000000
000000
1C6180
0CE380
196700
1ACB00
359600
39AC00
734C00
639800
E71C00
C63800
000000
000000
000000
000000
000000
ENDCHAR
STARTCHAR C000E
ENCODING -1 14
SWIDTH 600 0
DWIDTH 12 0
BBX 22 20 0 -5
BITMAP
000000
000000
000000
000000
000000
041000
1C7000
08E000
194000
12C000
358000
398000
730000
63C000
C30000
000000
000000
000000
000000
000000
ENDCHAR
STARTCHAR C000F
ENCODING -1 15
SWIDTH 450 0
DWIDTH 9 0
BBX 22 20 0 -5
BITMAP
000000
000000
000000
000000
000000
058000
0B8000
118000
218000
630000
430000
C20000
C40000
F80000
E00000
000000
000000
000000
000000
000000
ENDCHAR
STARTCHAR C0010
ENCODING -1 16
SWIDTH 600 0
DWIDTH 12 0
BBX 22 20 0 -5
BITMAP
000000
000000
000000
000000
000000
023000
06F000
073000
0E3000
0C2000
0C6000
18C000
188000
1F0000
360000
200000
600000
600000
C00000
000000
ENDCHAR
STARTCHAR C0011
ENCODING -1 17
SWIDTH 550 0
DWIDTH 11 0
BBX 22 20 0 -5
BITMAP
000000
000000
000000
000000
000000
03A000
05E000
08C000
18C000
318000
630000
670000
EB0000
F60000
E60000
0C0000
0C0000
180000
1C0000
100000
ENDCHAR
STARTCHAR C0012
ENCODING -1 18
SWIDTH 500 0
DWIDTH 10 0
BBX 22 20 0 -5
BITMAP
000000
000000
000000
000000
018000
1BC000
3F8000
190000
180000
300000
300000
600000
600000
F00000
C00000
000000
000000
000000
000000
000000
ENDCHAR
STARTCHAR C0013
ENCODING -1 19
SWIDTH 450 0
DWIDTH 9 0
BBX 22 20 0 -5
BITMAP
000000
000000
000000
000000
078000
098000
110000
180000
1E0000
0E0000
260000
460000
E40000
F80000
700000
000000
000000
000000
000000
000000
ENDCHAR
STARTCHAR C0014
ENCODING -1 20
SWIDTH 400 0
DWIDTH 8 0
BBX 22 20 0 -5
BITMAP
000000
000000
030000
060000
0C0000
3F0000
180000
380000
300000
700000
600000
E00000
E40000
F80000
700000
000000
000000
000000
000000
000000
ENDCHAR
STARTCHAR C0015
ENCODING -1 21
SWIDTH 550 0
DWIDTH 11 0
BBX 22 20 0 -5
BITMAP
000000
000000
000000
000000
000000
086000
38C000
198000
318000
330000
670000
6B0000
D60000
E78000
C60000
000000
000000
000000
000000
000000
ENDCHAR
STARTCHAR C0016
ENCODING -1 22
SWIDTH 500 0
DWIDTH 10 0
BBX 22 20 0 -5
BITMAP
000000
000000
000000
000000
080000
19C000
338000
318000
610000
620000
E20000
E40000
E80000
700000
600000
000000
000000
000000
000000
000000
ENDCHAR
STARTCHAR C0017
ENCODING -1 23
SWIDTH 800 0
DWIDTH 16 0
BBX 22 20 0 -5
BITMAP
000000
000000
000000
000000
000000
1C6700
18CE00
39C400
31C400
338800
659000
6B2000
F34000
E38000
C30000
000000
000000
000000
000000
000000
ENDCHAR
STARTCHAR C0018
ENCODING -1 24
SWIDTH 650 0
DWIDTH 13 0
BBX 22 20 0 -5
BITMAP
000000
000000
000000
000000
000000
061800
0C3000
0C6000
0C8000
0D0000
0E0000
0C0000
1E0000
678000
830000
000000
000000
000000
000000
000000
ENDCHAR
STARTCHAR C0019
ENCODING -1 25
SWIDTH 650 0
DWIDTH 13 0
BBX 22 20 0 -5
BITMAP
000000
000000
000000
000000
000000
061800
1E3000
0C6000
086000
18C000
11C000
338000
358000
7B0000
660000
060000
440000
C80000
F00000
000000
ENDCHAR
STARTCHAR C001A
ENCODING -1 26
SWIDTH 600 0
DWIDTH 12 0
BBX 22 20 0 -5
BITMAP
000000
000000
000000
000000
000000
039000
0FE000
08C000
018000
020000
040000
080000
388000
7C8000
8F0000
000000
000000
000000
000000
000000
ENDCHAR
STARTCHAR C001B
ENCODING -1 27
SWIDTH 0 0
DWIDTH 0 0
BBX 22 20 0 -5
BITMAP
000000
000000
000000
000000
000000
000000
000000
000000
000000
000000
000000
000000
000000
000000
000000
000000
000000
000000
000000
000000
ENDCHAR
STARTCHAR C001C
ENCODING -1 28
SWIDTH 0 0
DWIDTH 0 0
BBX 22 20 0 -5
BITMAP
000000
000000
000000
000000
000000
000000
000000
000000
000000
000000
000000
000000
000000
000000
000000
000000
000000
000000
000000
000000
ENDCHAR
STARTCHAR C001D
ENCODING -1 29
SWIDTH 0 0
DWIDTH 0 0
BBX 22 20 0 -5
BITMAP
000000
000000
000000
000000
000000
000000
000000
000000
000000
000000
000000
000000
000000
000000
000000
000000
000000
000000
000000
000000
ENDCHAR
STARTCHAR C001E
ENCODING -1 30
SWIDTH 0 0
DWIDTH 0 0
BBX 22 20 0 -5
BITMAP
000000
000000
000000
000000
000000
000000
000000
000000
000000
000000
000000
000000
000000
000000
000000
000000
000000
000000
000000
000000
ENDCHAR
STARTCHAR C001F
ENCODING -1 31
SWIDTH 0 0
DWIDTH 0 0
BBX 22 20 0 -5
BITMAP
000000
000000
000000
000000
000000
000000
000000
000000
000000
000000
000000
000000
000000
000000
000000
000000
000000
000000
000000
000000
ENDCHAR
STARTCHAR C0020
ENCODING -1 32
SWIDTH 350 0
DWIDTH 7 0
BBX 22 20 0 -5
BITMAP
000000
000000
000000
000000
000000
000000
000000
000000
000000
000000
000000
000000
000000
000000
000000
000000
000000
000000
000000
000000
ENDCHAR
STARTCHAR C0021
ENCODING -1 33
SWIDTH 400 0
DWIDTH 8 0
BBX 22 20 0 -5
BITMAP
000000
000000
100000
380000
380000
380000
380000
100000
100000
100000
100000
100000
000000
100000
380000
100000
000000
000000
000000
000000
ENDCHAR
STARTCHAR C0022
ENCODING -1 34
SWIDTH 400 0
DWIDTH 8 0
BBX 22 20 0 -5
BITMAP
000000
000000
D80000
D80000
900000
900000
000000
000000
000000
000000
000000
000000
000000
000000
000000
000000
000000
000000
000000
000000
ENDCHAR
STARTCHAR C0023
ENCODING -1 35
SWIDTH 800 0
DWIDTH 16 0
BBX 22 20 0 -5
BITMAP
000000
000000
000000
019800
019800
033000
033000
3FFC00
7FF800
0CC000
7FF800
FFF000
198000
330000
330000
660000
000000
000000
000000
000000
ENDCHAR
STARTCHAR C0024
ENCODING -1 36
SWIDTH 550 0
DWIDTH 11 0
BBX 22 20 0 -5
BITMAP
000000
080000
1A0000
6F0000
C90000
C90000
E80000
780000
3E0000
1F0000
0B0000
898000
898000
CB0000
BE0000
080000
000000
000000
000000
000000
ENDCHAR
STARTCHAR C0025
ENCODING -1 37
SWIDTH 900 0
DWIDTH 18 0
BBX 22 20 0 -5
BITMAP
000000
0C0800
333800
61D000
C12000
C24000
C2C000
4C8000
310000
033E00
026100
04C100
0CC100
08C200
107C00
000000
000000
000000
000000
000000
ENDCHAR
STARTCHAR C0026
ENCODING -1 38
SWIDTH 800 0
DWIDTH 16 0
BBX 22 20 0 -5
BITMAP
000000
000000
000000
000000
000000
000000
000000
000000
000000
000000
000000
000000
000000
000000
000000
000000
000000
000000
000000
000000
ENDCHAR
STARTCHAR C0027
ENCODING -1 39
SWIDTH 400 0
DWIDTH 8 0
BBX 22 20 0 -5
BITMAP
000000
600000
F00000
100000
200000
400000
000000
000000
000000
000000
000000
000000
000000
000000
000000
000000
000000
000000
000000
000000
ENDCHAR
STARTCHAR C0028
ENCODING -1 40
SWIDTH 400 0
DWIDTH 8 0
BBX 22 20 0 -5
BITMAP
000000
040000
180000
200000
600000
600000
C00000
C00000
C00000
C00000
C00000
C00000
C00000
C00000
600000
600000
200000
180000
040000
000000
ENDCHAR
STARTCHAR C0029
ENCODING -1 41
SWIDTH 400 0
DWIDTH 8 0
BBX 22 20 0 -5
BITMAP
000000
800000
600000
100000
180000
180000
0C0000
0C0000
0C0000
0C0000
0C0000
0C0000
0C0000
0C0000
180000
180000
100000
600000
800000
000000
ENDCHAR
STARTCHAR C002A
ENCODING -1 42
SWIDTH 550 0
DWIDTH 11 0
BBX 22 20 0 -5
BITMAP
000000
000000
000000
000000
000000
080000
1C0000
C98000
EB8000
1C0000
EB8000
C98000
1C0000
080000
000000
000000
000000
000000
000000
000000
ENDCHAR
STARTCHAR C002B
ENCODING -1 43
SWIDTH 500 0
DWIDTH 10 0
BBX 22 20 0 -5
BITMAP
000000
000000
000000
000000
000000
000000
180000
180000
180000
FF0000
FF0000
180000
180000
180000
000000
000000
000000
000000
000000
000000
ENDCHAR
STARTCHAR C002C
ENCODING -1 44
SWIDTH 400 0
DWIDTH 8 0
BBX 22 20 0 -5
BITMAP
000000
000000
000000
000000
000000
000000
000000
000000
000000
000000
000000
000000
000000
E00000
E00000
200000
400000
800000
000000
000000
ENDCHAR
STARTCHAR C002D
ENCODING -1 45
SWIDTH 650 0
DWIDTH 13 0
BBX 22 20 0 -5
BITMAP
000000
000000
000000
000000
000000
000000
000000
000000
000000
FFC000
FFC000
000000
000000
000000
000000
000000
000000
000000
000000
000000
ENDCHAR
STARTCHAR C002E
ENCODING -1 46
SWIDTH 400 0
DWIDTH 8 0
BBX 22 20 0 -5
BITMAP
000000
000000
000000
000000
000000
000000
000000
000000
000000
000000
000000
000000
000000
C00000
C00000
000000
000000
000000
000000
000000
ENDCHAR
STARTCHAR C002F
ENCODING -1 47
SWIDTH 550 0
DWIDTH 11 0
BBX 22 20 0 -5
BITMAP
000000
018000
018000
030000
030000
060000
060000
0C0000
0C0000
180000
180000
300000
300000
600000
600000
C00000
C00000
000000
000000
000000
ENDCHAR
STARTCHAR C0030
ENCODING -1 48
SWIDTH 600 0
DWIDTH 12 0
BBX 22 20 0 -5
BITMAP
000000
000000
1E0000
210000
418000
408000
C0C000
C0C000
C0C000
C0C000
C0C000
C18000
618000
630000
1E0000
000000
000000
000000
000000
000000
ENDCHAR
STARTCHAR C0031
ENCODING -1 49
SWIDTH 400 0
DWIDTH 8 0
BBX 22 20 0 -5
BITMAP
000000
000000
300000
F00000
300000
300000
300000
300000
300000
300000
300000
300000
300000
300000
FC0000
000000
000000
000000
000000
000000
ENDCHAR
STARTCHAR C0032
ENCODING -1 50
SWIDTH 600 0
DWIDTH 12 0
BBX 22 20 0 -5
BITMAP
000000
000000
3E0000
470000
818000
018000
018000
030000
020000
040000
080000
100000
204000
7F8000
FF0000
000000
000000
000000
000000
000000
ENDCHAR
STARTCHAR C0033
ENCODING -1 51
SWIDTH 550 0
DWIDTH 11 0
BBX 22 20 0 -5
BITMAP
000000
000000
3E0000
430000
430000
030000
020000
060000
1F0000
038000
018000
018000
010000
E20000
7C0000
000000
000000
000000
000000
000000
ENDCHAR
STARTCHAR C0034
ENCODING -1 52
SWIDTH 600 0
DWIDTH 12 0
BBX 22 20 0 -5
BITMAP
000000
000000
010000
030000
070000
0B0000
130000
230000
430000
830000
FFC000
FFC000
030000
030000
030000
000000
000000
000000
000000
000000
ENDCHAR
STARTCHAR C0035
ENCODING -1 53
SWIDTH 550 0
DWIDTH 11 0
BBX 22 20 0 -5
BITMAP
000000
000000
1F8000
3F0000
200000
700000
7C0000
1E0000
070000
030000
010000
010000
020000
C60000
F80000
000000
000000
000000
000000
000000
ENDCHAR
STARTCHAR C0036
ENCODING -1 54
SWIDTH 550 0
DWIDTH 11 0
BBX 22 20 0 -5
BITMAP
000000
018000
0E0000
180000
300000
600000
6C0000
F30000
C18000
C18000
C18000
C18000
C18000
630000
3C0000
000000
000000
000000
000000
000000
ENDCHAR
STARTCHAR C0037
ENCODING -1 55
SWIDTH 600 0
DWIDTH 12 0
BBX 22 20 0 -5
BITMAP
000000
000000
3FC000
7F8000
818000
010000
010000
030000
020000
020000
060000
040000
040000
0C0000
080000
000000
000000
000000
000000
000000
ENDCHAR
STARTCHAR C0038
ENCODING -1 56
SWIDTH 500 0
DWIDTH 10 0
BBX 22 20 0 -5
BITMAP
000000
000000
7C0000
C20000
C20000
C20000
E60000
7C0000
3C0000
4E0000
C70000
C30000
C30000
C20000
7E0000
000000
000000
000000
000000
000000
ENDCHAR
STARTCHAR C0039
ENCODING -1 57
SWIDTH 600 0
DWIDTH 12 0
BBX 22 20 0 -5
BITMAP
000000
000000
3E0000
638000
C18000
C0C000
C0C000
60C000
73C000
1F8000
018000
030000
060000
1C0000
700000
000000
000000
000000
000000
000000
ENDCHAR
STARTCHAR C003A
ENCODING -1 58
SWIDTH 400 0
DWIDTH 8 0
BBX 22 20 0 -5
BITMAP
000000
000000
000000
000000
000000
000000
C00000
C00000
000000
000000
000000
000000
000000
C00000
C00000
000000
000000
000000
000000
000000
ENDCHAR
STARTCHAR C003B
ENCODING -1 59
SWIDTH 400 0
DWIDTH 8 0
BBX 22 20 0 -5
BITMAP
000000
000000
000000
000000
000000
000000
C00000
C00000
000000
000000
000000
000000
000000
C00000
E00000
200000
400000
800000
000000
000000
ENDCHAR
STARTCHAR C003C
ENCODING -1 60
SWIDTH 400 0
DWIDTH 8 0
BBX 22 20 0 -5
BITMAP
000000
000000
000000
000000
000000
040000
0C0000
180000
300000
600000
C00000
600000
300000
180000
0C0000
040000
000000
000000
000000
000000
ENDCHAR
STARTCHAR C003D
ENCODING -1 61
SWIDTH 800 0
DWIDTH 16 0
BBX 22 20 0 -5
BITMAP
000000
000000
000000
000000
000000
000000
000000
000000
FFC000
FFC000
000000
000000
FFC000
FFC000
000000
000000
000000
000000
000000
000000
ENDCHAR
STARTCHAR C003E
ENCODING -1 62
SWIDTH 400 0
DWIDTH 8 0
BBX 22 20 0 -5
BITMAP
000000
000000
000000
000000
000000
800000
C00000
600000
300000
180000
0C0000
180000
300000
600000
C00000
800000
000000
000000
000000
000000
ENDCHAR
STARTCHAR C003F
ENCODING -1 63
SWIDTH 500 0
DWIDTH 10 0
BBX 22 20 0 -5
BITMAP
000000
000000
1E0000
270000
618000
618000
218000
030000
060000
040000
080000
080000
000000
180000
180000
000000
000000
000000
000000
000000
ENDCHAR
STARTCHAR C0040
ENCODING -1 64
SWIDTH 800 0
DWIDTH 16 0
BBX 22 20 0 -5
BITMAP
000000
000000
000000
000000
000000
000000
000000
000000
000000
000000
000000
000000
000000
000000
000000
000000
000000
000000
000000
000000
ENDCHAR
STARTCHAR C0041
ENCODING -1 65
SWIDTH 950 0
DWIDTH 19 0
BBX 22 20 0 -5
BITMAP
000000
000000
004000
00C000
01E000
016000
027000
023000
043800
0FF800
081C00
100C00
100E00
200E00
F81F80
000000
000000
000000
000000
000000
ENDCHAR
STARTCHAR C0042
ENCODING -1 66
SWIDTH 700 0
DWIDTH 14 0
BBX 22 20 0 -5
BITMAP
000000
000000
FF8000
30C000
306000
306000
306000
30C000
3F8000
30E000
307000
307000
307000
30E000
FF8000
000000
000000
000000
000000
000000
ENDCHAR
STARTCHAR C0043
ENCODING -1 67
SWIDTH 850 0
DWIDTH 17 0
BBX 22 20 0 -5
BITMAP
000000
000000
07E400
1C1C00
300400
600400
E00000
E00000
E00000
E00000
E00000
700200
380400
1C1800
07E000
000000
000000
000000
000000
000000
ENDCHAR
STARTCHAR C0044
ENCODING -1 68
SWIDTH 900 0
DWIDTH 18 0
BBX 22 20 0 -5
BITMAP
000000
000000
FFC000
307000
301C00
300E00
300600
300700
300700
300700
300600
300E00
301C00
303000
FFC000
000000
000000
000000
000000
000000
ENDCHAR
STARTCHAR C0045
ENCODING -1 69
SWIDTH 750 0
DWIDTH 15 0
BBX 22 20 0 -5
BITMAP
000000
000000
FFF000
301000
300000
300000
300000
304000
3FC000
304000
300000
300000
300800
301800
FFF000
000000
000000
000000
000000
000000
ENDCHAR
STARTCHAR C0046
ENCODING -1 70
SWIDTH 750 0
DWIDTH 15 0
BBX 22 20 0 -5
BITMAP
000000
000000
FFF800
300800
300800
300000
300000
302000
3FE000
302000
300000
300000
300000
300000
FC0000
000000
000000
000000
000000
000000
ENDCHAR
STARTCHAR C0047
ENCODING -1 71
SWIDTH 900 0
DWIDTH 18 0
BBX 22 20 0 -5
BITMAP
000000
000000
07F400
180C00
300400
600400
E00000
E00000
E03F00
E00E00
E00E00
600E00
700E00
380C00
0FF000
000000
000000
000000
000000
000000
ENDCHAR
STARTCHAR C0048
ENCODING -1 72
SWIDTH 900 0
DWIDTH 18 0
BBX 22 20 0 -5
BITMAP
000000
000000
FC3F00
300C00
300C00
300C00
300C00
300C00
3FFC00
300C00
300C00
300C00
300C00
300C00
FC3F00
000000
000000
000000
000000
000000
ENDCHAR
STARTCHAR C0049
ENCODING -1 73
SWIDTH 400 0
DWIDTH 8 0
BBX 22 20 0 -5
BITMAP
000000
000000
7E0000
180000
180000
180000
180000
180000
180000
180000
180000
180000
180000
180000
7E0000
000000
000000
000000
000000
000000
ENDCHAR
STARTCHAR C004A
ENCODING -1 74
SWIDTH 550 0
DWIDTH 11 0
BBX 22 20 0 -5
BITMAP
000000
000000
1F8000
060000
060000
060000
060000
060000
060000
060000
060000
060000
460000
E40000
780000
000000
000000
000000
000000
000000
ENDCHAR
STARTCHAR C004B
ENCODING -1 75
SWIDTH 850 0
DWIDTH 17 0
BBX 22 20 0 -5
BITMAP
000000
000000
FCFC00
302000
304000
308000
310000
320000
3E0000
378000
33C000
31E000
30F000
307800
FCFE00
000000
000000
000000
000000
000000
ENDCHAR
STARTCHAR C004C
ENCODING -1 76
SWIDTH 750 0
DWIDTH 15 0
BBX 22 20 0 -5
BITMAP
000000
000000
FC0000
300000
300000
300000
300000
300000
300000
300000
300000
300000
300800
301000
FFE000
000000
000000
000000
000000
000000
ENDCHAR
STARTCHAR C004D
ENCODING -1 77
SWIDTH 1050 0
DWIDTH 21 0
BBX 22 20 0 -5
BITMAP
000000
000000
F801E0
380380
3C0380
2C0580
2E0580
260980
270980
231180
239180
21A180
21E180
20C180
F8C7E0
000000
000000
000000
000000
000000
ENDCHAR
STARTCHAR C004E
ENCODING -1 78
SWIDTH 900 0
DWIDTH 18 0
BBX 22 20 0 -5
BITMAP
000000
000000
F01F00
780400
3C0400
2E0400
270400
238400
21C400
20E400
207400
203C00
201C00
200C00
F80400
000000
000000
000000
000000
000000
ENDCHAR
STARTCHAR C004F
ENCODING -1 79
SWIDTH 850 0
DWIDTH 17 0
BBX 22 20 0 -5
BITMAP
000000
000000
07C000
183000
701C00
701C00
E00E00
E00E00
E00E00
E00E00
E00E00
701C00
301800
183000
07C000
000000
000000
000000
000000
000000
ENDCHAR
STARTCHAR C0050
ENCODING -1 80
SWIDTH 650 0
DWIDTH 13 0
BBX 22 20 0 -5
BITMAP
000000
000000
FF8000
30C000
306000
306000
306000
30C000
3F8000
300000
300000
300000
300000
300000
FC0000
000000
000000
000000
000000
000000
ENDCHAR
STARTCHAR C0051
ENCODING -1 81
SWIDTH 850 0
DWIDTH 17 0
BBX 22 20 0 -5
BITMAP
000000
000000
07C000
183000
301800
600C00
E00E00
E00E00
E00E00
E00E00
E00E00
E00E00
600C00
301800
183000
07C000
01C000
007000
001C00
000000
ENDCHAR
STARTCHAR C0052
ENCODING -1 82
SWIDTH 850 0
DWIDTH 17 0
BBX 22 20 0 -5
BITMAP
000000
000000
FFC000
306000
307000
307000
307000
30C000
3F8000
338000
31C000
30E000
307000
303800
FC1E00
000000
000000
000000
000000
000000
ENDCHAR
STARTCHAR C0053
ENCODING -1 83
SWIDTH 600 0
DWIDTH 12 0
BBX 22 20 0 -5
BITMAP
000000
000000
3E8000
618000
608000
608000
780000
3E0000
1F8000
07C000
01C000
80C000
C0C000
E18000
BF0000
000000
000000
000000
000000
000000
ENDCHAR
STARTCHAR C0054
ENCODING -1 84
SWIDTH 800 0
DWIDTH 16 0
BBX 22 20 0 -5
BITMAP
000000
000000
7FF800
830400
030000
030000
030000
030000
030000
030000
030000
030000
030000
030000
0FC000
000000
000000
000000
000000
000000
ENDCHAR
STARTCHAR C0055
ENCODING -1 85
SWIDTH 900 0
DWIDTH 18 0
BBX 22 20 0 -5
BITMAP
000000
000000
FC1F00
300400
300400
300400
300400
300400
300400
300400
300400
300400
300400
180800
07F000
000000
000000
000000
000000
000000
ENDCHAR
STARTCHAR C0056
ENCODING -1 86
SWIDTH 900 0
DWIDTH 18 0
BBX 22 20 0 -5
BITMAP
000000
000000
FE1F00
180400
180400
0C0800
0C0800
061000
061000
032000
032000
01C000
01C000
008000
008000
000000
000000
000000
000000
000000
ENDCHAR
STARTCHAR C0057
ENCODING -1 87
SWIDTH 1200 0
DWIDTH 24 0
BBX 22 20 0 -5
BITMAP
000000
000000
FCFC7C
303010
183010
181830
0C1820
0C3C60
062C40
066EC0
034680
034680
018300
018300
008100
000000
000000
000000
000000
000000
ENDCHAR
STARTCHAR C0058
ENCODING -1 88
SWIDTH 900 0
DWIDTH 18 0
BBX 22 20 0 -5
BITMAP
000000
000000
FE1F00
380C00
1C1800
0E3000
076000
03C000
01C000
03E000
067000
0C3800
181C00
300E00
F83F00
000000
000000
000000
000000
000000
ENDCHAR
STARTCHAR C0059
ENCODING -1 89
SWIDTH 1000 0
DWIDTH 20 0
BBX 22 20 0 -5
BITMAP
000000
000000
FE07C0
1C0300
0E0600
070C00
039800
01F000
00E000
00E000
00E000
00E000
00E000
00E000
07F800
000000
000000
000000
000000
000000
ENDCHAR
STARTCHAR C005A
ENCODING -1 90
SWIDTH 800 0
DWIDTH 16 0
BBX 22 20 0 -5
BITMAP
000000
000000
3FF800
607000
40E000
01C000
01C000
038000
070000
0E0000
1C0000
1C0000
380400
700C00
FFF800
000000
000000
000000
000000
000000
ENDCHAR
STARTCHAR C005B
ENCODING -1 91
SWIDTH 400 0
DWIDTH 8 0
BBX 22 20 0 -5
BITMAP
F00000
C00000
C00000
C00000
C00000
C00000
C00000
C00000
C00000
C00000
C00000
C00000
C00000
C00000
C00000
C00000
F00000
000000
000000
000000
ENDCHAR
STARTCHAR C005C
ENCODING -1 92
SWIDTH 550 0
DWIDTH 11 0
BBX 22 20 0 -5
BITMAP
C00000
C00000
600000
600000
300000
300000
180000
180000
0C0000
0C0000
060000
060000
030000
030000
018000
018000
000000
000000
000000
000000
ENDCHAR
STARTCHAR C005D
ENCODING -1 93
SWIDTH 400 0
DWIDTH 8 0
BBX 22 20 0 -5
BITMAP
F00000
300000
300000
300000
300000
300000
300000
300000
300000
300000
300000
300000
300000
300000
300000
300000
F00000
000000
000000
000000
ENDCHAR
STARTCHAR C005E
ENCODING -1 94
SWIDTH 0 0
DWIDTH 0 0
BBX 22 20 0 -5
BITMAP
000000
000000
000000
000000
000000
000000
000000
000000
000000
000000
000000
000000
000000
000000
000000
000000
000000
000000
000000
000000
ENDCHAR
STARTCHAR C005F
ENCODING -1 95
SWIDTH 1000 0
DWIDTH 20 0
BBX 22 20 0 -5
BITMAP
000000
000000
000000
000000
000000
000000
000000
000000
000000
000000
000000
000000
000000
000000
000000
000000
FFFC00
FFFC00
000000
000000
ENDCHAR
STARTCHAR C0060
ENCODING -1 96
SWIDTH 400 0
DWIDTH 8 0
BBX 22 20 0 -5
BITMAP
200000
400000
C00000
E00000
600000
000000
000000
000000
000000
000000
000000
000000
000000
000000
000000
000000
000000
000000
000000
000000
ENDCHAR
STARTCHAR C0061
ENCODING -1 97
SWIDTH 600 0
DWIDTH 12 0
BBX 22 20 0 -5
BITMAP
000000
000000
000000
000000
000000
1E0000
630000
C30000
C30000
0F0000
330000
630000
C30000
C74000
798000
000000
000000
000000
000000
000000
ENDCHAR
STARTCHAR C0062
ENCODING -1 98
SWIDTH 600 0
DWIDTH 12 0
BBX 22 20 0 -5
BITMAP
000000
200000
E00000
600000
600000
660000
6F8000
718000
60C000
60C000
60C000
60C000
608000
710000
0E0000
000000
000000
000000
000000
000000
ENDCHAR
STARTCHAR C0063
ENCODING -1 99
SWIDTH 550 0
DWIDTH 11 0
BBX 22 20 0 -5
BITMAP
000000
000000
000000
000000
000000
1C0000
230000
430000
C00000
C00000
C00000
C08000
E10000
7E0000
3C0000
000000
000000
000000
000000
000000
ENDCHAR
STARTCHAR C0064
ENCODING -1 100
SWIDTH 650 0
DWIDTH 13 0
BBX 22 20 0 -5
BITMAP
000000
004000
01C000
00C000
00C000
1EC000
21C000
60C000
40C000
C0C000
C0C000
C0C000
60C000
71E000
1E8000
000000
000000
000000
000000
000000
ENDCHAR
STARTCHAR C0065
ENCODING -1 101
SWIDTH 500 0
DWIDTH 10 0
BBX 22 20 0 -5
BITMAP
000000
000000
000000
000000
000000
1E0000
610000
408000
FF8000
C00000
C00000
C00000
608000
7F0000
1C0000
000000
000000
000000
000000
000000
ENDCHAR
STARTCHAR C0066
ENCODING -1 102
SWIDTH 350 0
DWIDTH 7 0
BBX 22 20 0 -5
BITMAP
000000
0E0000
100000
100000
300000
7C0000
300000
300000
300000
300000
300000
300000
300000
300000
FC0000
000000
000000
000000
000000
000000
ENDCHAR
STARTCHAR C0067
ENCODING -1 103
SWIDTH 600 0
DWIDTH 12 0
BBX 22 20 0 -5
BITMAP
000000
000000
000000
000000
000000
1C0000
238000
630000
630000
630000
230000
3C0000
400000
400000
7F0000
408000
C08000
C08000
C18000
7E0000
ENDCHAR
STARTCHAR C0068
ENCODING -1 104
SWIDTH 650 0
DWIDTH 13 0
BBX 22 20 0 -5
BITMAP
000000
100000
700000
300000
300000
378000
38C000
30C000
30C000
30C000
30C000
30C000
30C000
30C000
FDE000
000000
000000
000000
000000
000000
ENDCHAR
STARTCHAR C0069
ENCODING -1 105
SWIDTH 350 0
DWIDTH 7 0
BBX 22 20 0 -5
BITMAP
000000
000000
300000
300000
000000
100000
700000
300000
300000
300000
300000
300000
300000
300000
780000
000000
000000
000000
000000
000000
ENDCHAR
STARTCHAR C006A
ENCODING -1 106
SWIDTH 400 0
DWIDTH 8 0
BBX 22 20 0 -5
BITMAP
000000
0C0000
0C0000
000000
000000
040000
3C0000
0C0000
0C0000
0C0000
0C0000
0C0000
0C0000
0C0000
0C0000
0C0000
0C0000
080000
C80000
F00000
ENDCHAR
STARTCHAR C006B
ENCODING -1 107
SWIDTH 650 0
DWIDTH 13 0
BBX 22 20 0 -5
BITMAP
000000
100000
700000
300000
300000
33C000
310000
320000
340000
380000
3C0000
360000
330000
318000
FBE000
000000
000000
000000
000000
000000
ENDCHAR
STARTCHAR C006C
ENCODING -1 108
SWIDTH 400 0
DWIDTH 8 0
BBX 22 20 0 -5
BITMAP
000000
100000
700000
300000
300000
300000
300000
300000
300000
300000
300000
300000
300000
300000
FC0000
000000
000000
000000
000000
000000
ENDCHAR
STARTCHAR C006D
ENCODING -1 109
SWIDTH 1000 0
DWIDTH 20 0
BBX 22 20 0 -5
BITMAP
000000
000000
000000
000000
000000
379E00
F8E300
30C300
30C300
30C300
30C300
30C300
30C300
30C300
FDF7C0
000000
000000
000000
000000
000000
ENDCHAR
STARTCHAR C006E
ENCODING -1 110
SWIDTH 700 0
DWIDTH 14 0
BBX 22 20 0 -5
BITMAP
000000
000000
000000
000000
000000
378000
F8C000
30C000
30C000
30C000
30C000
30C000
30C000
30C000
FBF000
000000
000000
000000
000000
000000
ENDCHAR
STARTCHAR C006F
ENCODING -1 111
SWIDTH 600 0
DWIDTH 12 0
BBX 22 20 0 -5
BITMAP
000000
000000
000000
000000
000000
1E0000
618000
408000
C0C000
C0C000
C0C000
C0C000
408000
618000
1E0000
000000
000000
000000
000000
000000
ENDCHAR
STARTCHAR C0070
ENCODING -1 112
SWIDTH 650 0
DWIDTH 13 0
BBX 22 20 0 -5
BITMAP
000000
000000
000000
000000
000000
130000
77C000
38E000
306000
306000
306000
306000
304000
388000
370000
300000
300000
300000
300000
FC0000
ENDCHAR
STARTCHAR C0071
ENCODING -1 113
SWIDTH 650 0
DWIDTH 13 0
BBX 22 20 0 -5
BITMAP
000000
000000
000000
000000
000000
1C8000
638000
418000
C18000
C18000
C18000
C18000
C18000
638000
3D8000
018000
018000
018000
018000
07E000
ENDCHAR
STARTCHAR C0072
ENCODING -1 114
SWIDTH 500 0
DWIDTH 10 0
BBX 22 20 0 -5
BITMAP
000000
000000
000000
000000
000000
130000
770000
380000
300000
300000
300000
300000
300000
300000
FC0000
000000
000000
000000
000000
000000
ENDCHAR
STARTCHAR C0073
ENCODING -1 115
SWIDTH 500 0
DWIDTH 10 0
BBX 22 20 0 -5
BITMAP
000000
000000
000000
000000
000000
3A0000
460000
420000
620000
380000
1E0000
860000
830000
C30000
BE0000
000000
000000
000000
000000
000000
ENDCHAR
STARTCHAR C0074
ENCODING -1 116
SWIDTH 400 0
DWIDTH 8 0
BBX 22 20 0 -5
BITMAP
000000
000000
000000
100000
100000
700000
FC0000
300000
300000
300000
300000
300000
300000
320000
1C0000
000000
000000
000000
000000
000000
ENDCHAR
STARTCHAR C0075
ENCODING -1 117
SWIDTH 700 0
DWIDTH 14 0
BBX 22 20 0 -5
BITMAP
000000
000000
000000
000000
000000
F3C000
30C000
30C000
30C000
30C000
30C000
30C000
30C000
39F000
1EC000
000000
000000
000000
000000
000000
ENDCHAR
STARTCHAR C0076
ENCODING -1 118
SWIDTH 650 0
DWIDTH 13 0
BBX 22 20 0 -5
BITMAP
000000
000000
000000
000000
000000
F8E000
604000
708000
308000
390000
190000
1E0000
0E0000
0C0000
040000
000000
000000
000000
000000
000000
ENDCHAR
STARTCHAR C0077
ENCODING -1 119
SWIDTH 900 0
DWIDTH 18 0
BBX 22 20 0 -5
BITMAP
000000
000000
000000
000000
000000
F7CF00
618200
618400
318400
32C800
3AC800
1C7000
1C7000
082000
082000
000000
000000
000000
000000
000000
ENDCHAR
STARTCHAR C0078
ENCODING -1 120
SWIDTH 650 0
DWIDTH 13 0
BBX 22 20 0 -5
BITMAP
000000
000000
000000
000000
000000
7DC000
188000
0D0000
0E0000
060000
0F0000
130000
218000
41C000
E3E000
000000
000000
000000
000000
000000
ENDCHAR
STARTCHAR C0079
ENCODING -1 121
SWIDTH 700 0
DWIDTH 14 0
BBX 22 20 0 -5
BITMAP
000000
000000
000000
000000
000000
F87000
302000
304000
184000
188000
0C8000
0D0000
070000
020000
020000
020000
040000
040000
680000
700000
ENDCHAR
STARTCHAR C007A
ENCODING -1 122
SWIDTH 700 0
DWIDTH 14 0
BBX 22 20 0 -5
BITMAP
000000
000000
000000
000000
000000
7FE000
40C000
418000
030000
060000
0C0000
180000
301000
602000
FFC000
000000
000000
000000
000000
000000
ENDCHAR
STARTCHAR C007B
ENCODING -1 123
SWIDTH 800 0
DWIDTH 16 0
BBX 22 20 0 -5
BITMAP
000000
000000
000000
000000
000000
000000
000000
000000
000000
000000
000000
000000
000000
000000
000000
000000
000000
000000
000000
000000
ENDCHAR
STARTCHAR C007C
ENCODING -1 124
SWIDTH 400 0
DWIDTH 8 0
BBX 22 20 0 -5
BITMAP
180000
180000
180000
180000
180000
180000
180000
180000
180000
180000
180000
180000
180000
180000
180000
180000
000000
000000
000000
000000
ENDCHAR
STARTCHAR C007D
ENCODING -1 125
SWIDTH 800 0
DWIDTH 16 0
BBX 22 20 0 -5
BITMAP
000000
000000
000000
000000
000000
000000
000000
000000
000000
000000
000000
000000
000000
000000
000000
000000
000000
000000
000000
000000
ENDCHAR
STARTCHAR C007E
ENCODING -1 126
SWIDTH 750 0
DWIDTH 15 0
BBX 22 20 0 -5
BITMAP
000000
000000
000000
000000
000000
000000
000000
000000
3C0000
7E1800
C3F000
01E000
000000
000000
000000
000000
000000
000000
000000
000000
ENDCHAR
STARTCHAR C007F
ENCODING -1 127
SWIDTH 0 0
DWIDTH 0 0
BBX 22 20 0 -5
BITMAP
000000
000000
000000
000000
000000
000000
000000
000000
000000
000000
000000
000000
000000
000000
000000
000000
000000
000000
000000
000000
ENDCHAR
ENDFONT
